<svg width="48" height="48" viewBox="0 0 48 48" fill="none" xmlns="http://www.w3.org/2000/svg">
<path fill-rule="evenodd" clip-rule="evenodd" d="M8.02089 13.1797C7.90763 13.8048 7.84899 14.4442 7.84899 15.0946C7.84899 22.3559 15.1582 28.2423 24.1745 28.2423C33.1908 28.2423 40.5 22.3559 40.5 15.0946C40.5 14.447 40.4419 13.8103 40.3295 13.1877C39.6161 10.737 38.3602 8.51738 36.7004 6.66748C36.74 6.93909 36.7603 7.21448 36.7603 7.49303C36.7603 12.1388 31.1249 15.905 24.1734 15.905C17.2219 15.905 11.5866 12.1388 11.5866 7.49303C11.5866 7.21506 11.6067 6.94023 11.6462 6.66918C9.98897 8.51673 8.73451 10.733 8.02089 13.1797Z" fill="rgb(var(--main))"/>
<path d="M5.9995 29.0564C5.9995 38.9685 14.0349 47.0039 23.947 47.0039C33.8592 47.0039 41.8945 38.9685 41.8945 29.0564C41.8945 19.1443 33.8592 11.1089 23.947 11.1089C14.0349 11.1089 5.9995 19.1443 5.9995 29.0564Z" fill="rgb(var(--main))"/>
<path d="M43.7723 33.468C42.1259 32.6073 39.6054 31.5947 36.6729 31.2401C36.2613 31.1896 36.107 30.6831 36.4156 30.4299C37.2388 29.7716 38.0103 29.0122 38.7305 28.202C42.8974 23.5944 44.5951 17.9743 45.2124 14.9364C45.418 13.9239 44.4408 13.0631 43.4633 13.4174C40.4796 14.3795 34.9752 16.7083 30.8081 21.3159C30.6024 21.5182 30.3965 21.7715 30.2422 21.9742C29.9335 22.3288 29.3676 22.1261 29.419 21.6705C29.522 20.6579 29.5733 19.6454 29.5733 18.5819C29.5733 10.8352 26.9497 4.15176 25.3547 0.759413C24.8917 -0.253138 23.3997 -0.253138 22.8854 0.759413C21.2907 4.15176 18.6668 10.8858 18.6668 18.5819C18.6668 19.6454 18.7181 20.6579 18.8211 21.6705C18.8724 22.1261 18.3065 22.3288 17.9979 21.9742C17.7923 21.7718 17.6376 21.5186 17.432 21.3159C13.2651 16.7083 7.7605 14.4299 4.77673 13.4174C3.7992 13.1136 2.82176 13.9238 3.02772 14.9364C3.69661 17.9745 5.39434 23.5947 9.5096 28.202C10.2298 29.0122 11.053 29.7715 11.8245 30.4299C12.1331 30.6831 11.9788 31.1893 11.5672 31.2401C8.6347 31.5947 6.11421 32.6578 4.46781 33.468C3.49028 33.9745 3.49028 35.3413 4.46781 35.7973C6.47414 36.8098 9.81783 38.177 13.5735 38.177C14.448 38.177 15.2712 38.1265 16.0944 37.9746C16.506 37.9241 16.7633 38.3797 16.5573 38.6834C15.8371 39.696 15.3226 40.7594 14.9109 41.6201C14.4993 42.6835 15.4768 43.7466 16.6086 43.3924C18.1003 42.8859 20.004 42.0252 21.65 40.5062C22.0103 40.2024 22.3189 39.8479 22.5758 39.5441L22.0612 46.3796C22.0099 47.2403 22.7301 48 23.6047 48H24.5822C25.4567 48 26.1769 47.2407 26.1256 46.3796L25.611 39.5441C25.9196 39.8987 26.2282 40.2024 26.5368 40.5062C28.1315 42.0252 30.0866 42.8859 31.5783 43.3924C32.6588 43.747 33.6876 42.6836 33.2759 41.6201C32.9157 40.7089 32.4014 39.696 31.6295 38.6834C31.3723 38.3288 31.6809 37.8732 32.0925 37.9746C32.9157 38.076 33.7389 38.177 34.6133 38.177C38.3687 38.177 41.7127 36.8606 43.719 35.7973C44.75 35.2908 44.75 33.9742 43.7725 33.468H43.7723Z" fill="rgb(var(--black))"/>
<path d="M43.7723 33.468C42.1259 32.6073 39.6054 31.5947 36.6729 31.2401C36.2613 31.1896 36.107 30.6831 36.4156 30.4299C37.2388 29.7716 38.0103 29.0122 38.7305 28.202C42.8974 23.5944 44.5951 17.9743 45.2124 14.9364C45.418 13.9239 44.4408 13.0631 43.4633 13.4174C40.4796 14.3795 34.9752 16.7083 30.8081 21.3159C30.6024 21.5182 30.3965 21.7715 30.2422 21.9742C29.9335 22.3288 29.3676 22.1261 29.419 21.6705C29.522 20.6579 29.5733 19.6454 29.5733 18.5819C29.5733 10.8352 26.9497 4.15176 25.3547 0.759413C24.8917 -0.253138 23.3997 -0.253138 22.8854 0.759413C21.2907 4.15176 18.6668 10.8858 18.6668 18.5819C18.6668 19.6454 18.7181 20.6579 18.8211 21.6705C18.8724 22.1261 18.3065 22.3288 17.9979 21.9742C17.7923 21.7718 17.6376 21.5186 17.432 21.3159C13.2651 16.7083 7.7605 14.4299 4.77673 13.4174C3.7992 13.1136 2.82176 13.9238 3.02772 14.9364C3.69661 17.9745 5.39434 23.5947 9.5096 28.202C10.2298 29.0122 11.053 29.7715 11.8245 30.4299C12.1331 30.6831 11.9788 31.1893 11.5672 31.2401C8.6347 31.5947 6.11421 32.6578 4.46781 33.468C3.49028 33.9745 3.49028 35.3413 4.46781 35.7973C6.47414 36.8098 9.81783 38.177 13.5735 38.177C14.448 38.177 15.2712 38.1265 16.0944 37.9746C16.506 37.9241 16.7633 38.3797 16.5573 38.6834C15.8371 39.696 15.3226 40.7594 14.9109 41.6201C14.4993 42.6835 15.4768 43.7466 16.6086 43.3924C18.1003 42.8859 20.004 42.0252 21.65 40.5062C22.0103 40.2024 22.3189 39.8479 22.5758 39.5441L22.0612 46.3796C22.0099 47.2403 22.7301 48 23.6047 48H24.5822C25.4567 48 26.1769 47.2407 26.1256 46.3796L25.611 39.5441C25.9196 39.8987 26.2282 40.2024 26.5368 40.5062C28.1315 42.0252 30.0866 42.8859 31.5783 43.3924C32.6588 43.747 33.6876 42.6836 33.2759 41.6201C32.9157 40.7089 32.4014 39.696 31.6295 38.6834C31.3723 38.3288 31.6809 37.8732 32.0925 37.9746C32.9157 38.076 33.7389 38.177 34.6133 38.177C38.3687 38.177 41.7127 36.8606 43.719 35.7973C44.75 35.2908 44.75 33.9742 43.7725 33.468H43.7723Z" fill="rgb(var(--black))"/>
<circle cx="19.5362" cy="28.0601" r="1.53616" fill="rgb(var(--white))"/>
<circle cx="28.753" cy="28.0601" r="1.53616" fill="rgb(var(--white))"/>
<path fill-rule="evenodd" clip-rule="evenodd" d="M19.2213 32.849C19.6874 32.5793 20.2839 32.7386 20.5535 33.2047C21.2718 34.4464 22.6118 35.2782 24.145 35.2782C25.6783 35.2782 27.0183 34.4464 27.7366 33.2047C28.0062 32.7386 28.6027 32.5793 29.0688 32.849C29.5349 33.1186 29.6942 33.715 29.4245 34.1811C28.372 36.0006 26.4025 37.2282 24.145 37.2282C21.8876 37.2282 19.918 36.0006 18.8656 34.1811C18.5959 33.715 18.7552 33.1186 19.2213 32.849Z" fill="rgb(var(--white))"/>
</svg>
